<mxfile host="app.diagrams.net" modified="2024-01-18T10:28:10.840Z" agent="Mozilla/5.0 (X11; Linux x86_64; rv:109.0) Gecko/20100101 Firefox/115.0" etag="2VzpZin2oiVmnQIRpaOv" version="22.1.21" type="device">
  <diagram name="Page-1" id="NR6rK90W4Do48OthER0L">
    <mxGraphModel dx="1434" dy="792" grid="1" gridSize="10" guides="1" tooltips="1" connect="1" arrows="1" fold="1" page="1" pageScale="1" pageWidth="827" pageHeight="1169" math="0" shadow="0">
      <root>
        <mxCell id="0" />
        <mxCell id="1" parent="0" />
        <mxCell id="j_HuYr_yvYLadis5nQrf-1" value="head" style="rounded=0;whiteSpace=wrap;html=1;" vertex="1" parent="1">
          <mxGeometry x="10" y="120" width="60" height="30" as="geometry" />
        </mxCell>
        <mxCell id="j_HuYr_yvYLadis5nQrf-2" value="42" style="rounded=0;whiteSpace=wrap;html=1;" vertex="1" parent="1">
          <mxGeometry x="140" y="110" width="120" height="50" as="geometry" />
        </mxCell>
        <mxCell id="j_HuYr_yvYLadis5nQrf-3" value="" style="rounded=0;whiteSpace=wrap;html=1;" vertex="1" parent="1">
          <mxGeometry x="140" y="160" width="120" height="50" as="geometry" />
        </mxCell>
        <mxCell id="j_HuYr_yvYLadis5nQrf-4" value="12" style="rounded=0;whiteSpace=wrap;html=1;" vertex="1" parent="1">
          <mxGeometry x="320" y="110" width="120" height="50" as="geometry" />
        </mxCell>
        <mxCell id="j_HuYr_yvYLadis5nQrf-5" value="" style="rounded=0;whiteSpace=wrap;html=1;" vertex="1" parent="1">
          <mxGeometry x="320" y="160" width="120" height="50" as="geometry" />
        </mxCell>
        <mxCell id="j_HuYr_yvYLadis5nQrf-6" value="-5" style="rounded=0;whiteSpace=wrap;html=1;" vertex="1" parent="1">
          <mxGeometry x="500" y="110" width="120" height="50" as="geometry" />
        </mxCell>
        <mxCell id="j_HuYr_yvYLadis5nQrf-7" value="" style="rounded=0;whiteSpace=wrap;html=1;" vertex="1" parent="1">
          <mxGeometry x="500" y="160" width="120" height="50" as="geometry" />
        </mxCell>
        <mxCell id="j_HuYr_yvYLadis5nQrf-8" value="41" style="rounded=0;whiteSpace=wrap;html=1;" vertex="1" parent="1">
          <mxGeometry x="680" y="110" width="120" height="50" as="geometry" />
        </mxCell>
        <mxCell id="j_HuYr_yvYLadis5nQrf-9" value="NULL" style="rounded=0;whiteSpace=wrap;html=1;" vertex="1" parent="1">
          <mxGeometry x="680" y="160" width="120" height="50" as="geometry" />
        </mxCell>
        <mxCell id="j_HuYr_yvYLadis5nQrf-11" value="" style="curved=1;endArrow=classic;html=1;rounded=0;entryX=0;entryY=0.5;entryDx=0;entryDy=0;" edge="1" parent="1" target="j_HuYr_yvYLadis5nQrf-4">
          <mxGeometry width="50" height="50" relative="1" as="geometry">
            <mxPoint x="260" y="190" as="sourcePoint" />
            <mxPoint x="310" y="140" as="targetPoint" />
            <Array as="points">
              <mxPoint x="290" y="190" />
              <mxPoint x="310" y="190" />
              <mxPoint x="260" y="140" />
            </Array>
          </mxGeometry>
        </mxCell>
        <mxCell id="j_HuYr_yvYLadis5nQrf-12" value="" style="curved=1;endArrow=classic;html=1;rounded=0;entryX=0;entryY=0.5;entryDx=0;entryDy=0;" edge="1" parent="1">
          <mxGeometry width="50" height="50" relative="1" as="geometry">
            <mxPoint x="440" y="192.5" as="sourcePoint" />
            <mxPoint x="500" y="137.5" as="targetPoint" />
            <Array as="points">
              <mxPoint x="470" y="192.5" />
              <mxPoint x="490" y="192.5" />
              <mxPoint x="440" y="142.5" />
            </Array>
          </mxGeometry>
        </mxCell>
        <mxCell id="j_HuYr_yvYLadis5nQrf-13" value="" style="curved=1;endArrow=classic;html=1;rounded=0;entryX=0;entryY=0.5;entryDx=0;entryDy=0;" edge="1" parent="1">
          <mxGeometry width="50" height="50" relative="1" as="geometry">
            <mxPoint x="620" y="192.5" as="sourcePoint" />
            <mxPoint x="680" y="137.5" as="targetPoint" />
            <Array as="points">
              <mxPoint x="650" y="192.5" />
              <mxPoint x="670" y="192.5" />
              <mxPoint x="620" y="142.5" />
            </Array>
          </mxGeometry>
        </mxCell>
        <mxCell id="j_HuYr_yvYLadis5nQrf-14" value="" style="endArrow=classic;html=1;rounded=0;entryX=0;entryY=0.5;entryDx=0;entryDy=0;exitX=1;exitY=0.5;exitDx=0;exitDy=0;" edge="1" parent="1" source="j_HuYr_yvYLadis5nQrf-1" target="j_HuYr_yvYLadis5nQrf-2">
          <mxGeometry width="50" height="50" relative="1" as="geometry">
            <mxPoint x="80" y="170" as="sourcePoint" />
            <mxPoint x="130" y="120" as="targetPoint" />
          </mxGeometry>
        </mxCell>
      </root>
    </mxGraphModel>
  </diagram>
</mxfile>
